<?xml version="1.0" encoding="UTF-8"?>
<svg id="Layer_1" xmlns="http://www.w3.org/2000/svg" version="1.1" viewBox="0 0 764.3 732.9">
  <!-- Generator: Adobe Illustrator 29.7.0, SVG Export Plug-In . SVG Version: 2.1.1 Build 41)  -->
  <defs>
    <style>
      .st0 {
        fill: none;
      }

      .st1 {
        fill: #02afd7;
      }
    </style>
  </defs>
  <g>
    <polygon class="st0" points="291.9 705.3 302.2 705.3 302.2 695.1 291.9 705.3"/>
    <path class="st0" d="M334.5,694.8h-5.8c-1.4,0-2.3.2-2.8.6-.5.4-.7,1.1-.7,2.2v1.4c0,1.1.3,1.9.8,2.2.6.4,1.8.6,3.5.6s2.7,0,4.3-.2c1.5,0,3-.2,4.6-.5,0-.2,0-.4,0-.6,0-.3,0-.5,0-.7,0-3-.4-4-.7-4.4-.5-.5-1.6-.8-3.3-.8Z"/>
    <path class="st0" d="M370.6,704.3c-.6-.4-1.7-.6-3.5-.6s-3,0-4.5.2c-1.5,0-3,.2-4.4.4,0,.1,0,.2,0,.4,0,.2,0,.5,0,.8,0,2.9.4,3.9.7,4.3.3.3,1.2.8,3.3.8h5.8c1.4,0,2.3-.2,2.8-.6.5-.4.7-1.1.7-2.1v-1.4c0-1.1-.3-1.8-.8-2.1Z"/>
    <polygon class="st0" points="259.1 705.3 269.4 705.3 269.4 695.1 259.1 705.3"/>
    <rect class="st0" x="226.4" y="694.8" width="14.2" height="15.7"/>
    <path class="st0" d="M403.4,704.3c-.6-.4-1.7-.6-3.5-.6s-3,0-4.5.2c-1.5,0-3,.2-4.4.4,0,.1,0,.2,0,.4,0,.2,0,.5,0,.8,0,2.9.4,3.9.7,4.3.3.3,1.2.8,3.3.8h5.8c1.3,0,2.3-.2,2.8-.6.5-.4.7-1.1.7-2.1v-1.4c0-1.1-.3-1.8-.8-2.1Z"/>
    <rect class="st0" x="455.6" y="694.8" width="14.2" height="15.7"/>
    <path d="M205.7,700.8H17.4c-1.3,0-2.3,1-2.3,2.3s1,2.3,2.3,2.3h188.3c1.3,0,2.3-1,2.3-2.3s-1-2.3-2.3-2.3Z"/>
    <path d="M741.9,703.3h-188.3c-1.3,0-2.3,1-2.3,2.3,0,1.3,1,2.3,2.3,2.3h188.3c1.3,0,2.3-1,2.3-2.3s-1-2.3-2.3-2.3Z"/>
    <path d="M240.6,690h-14c-1.9,0-3.3.5-4,1.4-.7.9-1.1,2.5-1.1,4.9v13.2c0,2.4.3,4,1.1,4.9.7.9,2.1,1.4,4,1.4h14c1.9,0,3.3-.5,4-1.4.7-.9,1.1-2.5,1.1-4.9v-13.2c0-2.4-.3-4-1.1-4.9-.7-.9-2.1-1.4-4-1.4ZM240.7,694.8v15.7h-14.2v-15.7h14.2Z"/>
    <path d="M274.4,689.7h-5l-15.7,15.8v4.6h15.7v5.8h5v-5.8h5v-4.8h-5v-15.6ZM259.1,705.3l10.3-10.2v10.2h-10.3Z"/>
    <path d="M307.2,689.7h-5l-15.7,15.8v4.6h15.7v5.8h5v-5.8h5v-4.8h-5v-15.6ZM291.9,705.3l10.3-10.2v10.2h-10.3Z"/>
    <path d="M336.4,690h-8.8c-2.5,0-4.4.5-5.6,1.6-1.2,1.1-1.8,2.7-1.8,4.9v3.4c0,2.5.7,4.3,2,5.3,1.3,1,3.6,1.5,7.1,1.5s3.1,0,4.7-.2c1.4-.1,2.7-.3,4.1-.5-.7,2-2,3.5-3.7,4.3-1.9,1-5.1,1.4-9.5,1.4h-1.9l3.3,4.6h.1c.2,0,.4,0,.6,0,.2,0,.5,0,.9,0,4.9,0,8.8-1.3,11.5-3.9,2.7-2.6,4.1-6.3,4.1-11v-3.3c0-3-.5-5.1-1.5-6.3-1-1.2-2.9-1.8-5.6-1.8ZM338.5,700c0,.2,0,.4,0,.7,0,.2,0,.4,0,.6-1.6.2-3.2.4-4.6.5-1.5.1-3,.2-4.3.2s-3-.2-3.5-.6c-.5-.4-.8-1.1-.8-2.2v-1.4c0-1.1.2-1.8.7-2.2.5-.4,1.4-.6,2.8-.6h5.8c1.7,0,2.8.3,3.3.8.3.4.7,1.4.7,4.4Z"/>
    <path d="M374.5,700.5c-1.3-1-3.6-1.5-7.1-1.5s-3,0-4.5.2c-1.4.1-2.8.3-4.2.6.7-2,1.9-3.5,3.7-4.3,1.9-.9,5.1-1.4,9.4-1.4h1.9l-3.3-4.6h-.1c-.4,0-.7,0-.9-.1-.2,0-.4,0-.6,0-4.9,0-8.8,1.3-11.5,3.9-2.7,2.6-4.1,6.3-4.1,11v3.3c0,3,.5,5.1,1.5,6.3,1,1.2,2.9,1.8,5.6,1.8h8.8c2.5,0,4.4-.5,5.6-1.6,1.2-1,1.8-2.7,1.8-4.9v-3.4c0-2.5-.7-4.3-2-5.3ZM371.4,706.4v1.4c0,1.1-.2,1.8-.7,2.1-.5.4-1.4.6-2.8.6h-5.8c-2.1,0-3-.4-3.3-.8-.3-.4-.7-1.4-.7-4.3s0-.6,0-.8c0-.1,0-.2,0-.4,1.5-.2,3-.3,4.4-.4,1.5-.1,3-.2,4.5-.2s2.9.2,3.5.6c.5.4.8,1.1.8,2.1Z"/>
    <path d="M407.2,700.5c-1.3-1-3.6-1.5-7.1-1.5s-3,0-4.5.2c-1.4.1-2.8.3-4.2.6.7-2,1.9-3.5,3.7-4.3,1.9-.9,5.1-1.4,9.4-1.4h1.9l-3.3-4.6h-.1c-.4,0-.7,0-.9-.1-.2,0-.4,0-.6,0-4.9,0-8.8,1.3-11.5,3.9-2.7,2.6-4.1,6.3-4.1,11v3.3c0,3,.5,5.1,1.5,6.3,1,1.2,2.9,1.8,5.6,1.8h8.8c2.5,0,4.4-.5,5.6-1.6,1.2-1,1.8-2.7,1.8-4.9v-3.4c0-2.5-.7-4.3-2-5.3ZM404.2,706.4v1.4c0,1.1-.2,1.8-.7,2.1-.5.4-1.4.6-2.8.6h-5.8c-2.1,0-3-.4-3.3-.8-.3-.4-.7-1.4-.7-4.3,0-.3,0-.6,0-.8,0-.1,0-.2,0-.4,1.5-.2,3-.3,4.4-.4,1.5-.1,3-.2,4.5-.2s2.9.2,3.5.6c.5.4.8,1.1.8,2.1Z"/>
    <polygon points="424 695.3 428.4 695.3 428.4 715.6 433.4 715.6 433.4 689.7 424 691.4 424 695.3"/>
    <path d="M469.8,690h-14c-1.9,0-3.3.5-4,1.4-.7.9-1.1,2.5-1.1,4.9v13.2c0,2.4.3,4,1.1,4.9.7.9,2.1,1.4,4,1.4h14c1.9,0,3.3-.5,4-1.4.7-.9,1.1-2.5,1.1-4.9v-13.2c0-2.4-.3-4-1.1-4.9-.7-.9-2.1-1.4-4-1.4ZM469.8,694.8v15.7h-14.2v-15.7h14.2Z"/>
    <polygon points="483.9 699.3 488.9 700.3 488.9 694.8 501.8 694.8 490.6 716.1 496.6 716.1 507.5 694.4 507.5 690 483.9 690 483.9 699.3"/>
    <path d="M535.5,702.2c.9-.3,1.5-.7,2-1.2.6-.8,1-1.9,1-3.5v-2.3c0-2-.3-3.3-1-4.1-.7-.8-2-1.1-4-1.1h-11.2c-2,0-3.3.4-4,1.1-.7.8-1,2.1-1,4.1v1.8l4.7,1.1v-3.2h9.9c.9,0,1.2.2,1.3.3.1.2.3.6.3,1.6v1.3c0,1-.2,1.5-.3,1.6-.1.2-.5.3-1.3.3h-6.5v4.7h7.3c.7,0,1.2.1,1.4.4.2.2.3.6.3,1.6v1.8c0,1-.2,1.4-.3,1.6-.1.2-.5.3-1.4.3h-10.9v-3.6l-4.9,1.2v2.3c0,2,.3,3.3,1.1,4.1.7.8,2,1.1,4,1.1h12.1c2,0,3.4-.4,4.1-1.2.8-.8,1.2-2.3,1.2-4.4v-2.6c0-1.6-.4-2.9-1.2-3.8-.6-.6-1.4-1.1-2.5-1.4Z"/>
  </g>
  <g>
    <path class="st0" d="M484.6,650c-.2,0-.4,0-.7-.1-.3,0-.6,0-1.1,0h-1.5v4.9h1.8c.6,0,1,0,1.4-.2.4-.1.7-.3.9-.5.2-.2.4-.5.5-.7.1-.3.2-.6.2-1,0-.6-.1-1.1-.4-1.5-.2-.4-.7-.6-1.3-.8Z"/>
    <path class="st0" d="M500.5,662.4c.3-.1.6-.3.9-.5.2-.2.4-.4.6-.8.1-.3.2-.7.2-1.1s0-.9-.2-1.2c-.1-.3-.3-.6-.6-.8-.3-.2-.6-.4-1-.5-.4-.1-1-.2-1.7-.2h-2.3v5.2h2.9c.5,0,.9,0,1.2-.2Z"/>
    <path class="st0" d="M500.6,650.4c-.2-.2-.5-.3-.8-.4-.4-.1-.8-.2-1.5-.2h-1.9v4.7h2.1c.5,0,1,0,1.3-.2.3-.1.6-.3.7-.5.2-.2.3-.5.4-.7,0-.3.1-.6.1-1s0-.7-.1-1c0-.3-.2-.5-.4-.7Z"/>
    <path class="st0" d="M440.1,650.2c-.6-.3-1.4-.5-2.3-.5s-1.7.2-2.3.5c-.6.3-1.1.8-1.5,1.4-.4.6-.7,1.3-.8,2-.2.8-.3,1.7-.3,2.5s0,1.9.2,2.7c.2.8.4,1.5.8,2.1.4.6.8,1,1.4,1.3.6.3,1.4.5,2.3.5s1.7-.2,2.3-.5,1.1-.8,1.5-1.4c.4-.6.7-1.3.8-2.1.2-.8.3-1.7.3-2.6s0-1.8-.3-2.7c-.2-.8-.4-1.5-.8-2-.4-.6-.8-1-1.5-1.3Z"/>
    <polygon class="st0" points="70.1 658 74.8 658 72.4 651.3 70.1 658"/>
    <polygon class="st0" points="190.6 657.9 195.3 657.9 193 651.2 190.6 657.9"/>
    <path class="st0" d="M517.9,650.2c-.6-.3-1.4-.5-2.3-.5s-1.7.2-2.3.5c-.6.3-1.1.8-1.5,1.4-.4.6-.7,1.3-.8,2-.2.8-.3,1.7-.3,2.5s0,1.9.2,2.7c.2.8.4,1.5.8,2.1.4.6.8,1,1.4,1.3.6.3,1.4.5,2.3.5s1.7-.2,2.3-.5c.6-.3,1.1-.8,1.5-1.4.4-.6.7-1.3.8-2.1.2-.8.3-1.7.3-2.6s0-1.9-.3-2.7c-.2-.8-.4-1.5-.8-2-.4-.5-.8-1-1.5-1.3Z"/>
    <path class="st0" d="M469.5,650.2c-.6-.3-1.4-.5-2.3-.5s-1.7.2-2.3.5c-.6.3-1.1.8-1.5,1.4-.4.6-.7,1.3-.8,2-.2.8-.3,1.7-.3,2.5s0,1.9.2,2.7c.2.8.4,1.5.8,2.1.4.6.8,1,1.4,1.3.6.3,1.4.5,2.3.5s1.7-.2,2.3-.5c.6-.3,1.1-.8,1.5-1.4.4-.6.7-1.3.8-2.1.2-.8.3-1.7.3-2.6s0-1.9-.3-2.7c-.2-.8-.4-1.5-.8-2-.4-.5-.8-1-1.5-1.3Z"/>
    <path class="st0" d="M552.3,650.3c-.7-.3-1.6-.5-2.8-.5h-1.9v12.6h1.9c1.1,0,1.9-.1,2.7-.4.7-.2,1.3-.6,1.7-1.1.5-.5.8-1.2,1.1-2,.2-.8.4-1.8.4-2.9s-.1-1.7-.3-2.5c-.2-.7-.6-1.4-1-1.9-.4-.5-1-1-1.7-1.3Z"/>
    <path class="st0" d="M670.9,651c-.2,0-.8-.1-2-.1h-4v5.3h4c1.4,0,2.3-.2,2.9-.7.5-.5.8-1.1.8-2s-.2-1.2-.5-1.6c-.3-.4-.7-.7-1.2-.8Z"/>
    <path d="M50.9,648.4c-.2-.2-.4-.3-.7-.5-.3-.2-.8-.4-1.2-.6-.5-.2-1-.3-1.6-.4-.6-.1-1.3-.2-2-.2-1.4,0-2.6.2-3.7.7-1.1.5-2.1,1.1-2.9,2-.8.8-1.4,1.9-1.9,3-.4,1.2-.7,2.5-.7,3.9s.2,2.7.6,3.8c.4,1.1,1,2.1,1.8,3,.8.8,1.7,1.5,2.9,1.9,1.1.4,2.4.7,3.8.7.5,0,.9,0,1.4,0,.5,0,.9-.1,1.4-.3.4-.1.9-.2,1.3-.4.4-.2.8-.3,1.1-.4.4-.2.6-.4.7-.7.1-.2.2-.5.2-.8v-6.7c0-.2,0-.4,0-.6,0-.2-.2-.4-.3-.5-.1-.1-.3-.2-.4-.2-.2,0-.3,0-.5,0h-5.6c-.2,0-.3,0-.5.1-.1,0-.2.2-.3.4,0,.1-.1.3-.1.4,0,.1,0,.3,0,.5,0,.4,0,.7.2.9.2.3.4.5.8.5h3.6v4.3c-.4.2-.8.3-1.2.4-1.4.3-2.7.2-3.9-.2-.7-.3-1.3-.7-1.8-1.2-.5-.5-.9-1.2-1.2-2-.3-.8-.4-1.8-.4-2.8s.1-1.8.4-2.6c.3-.8.6-1.5,1.1-2.1.5-.6,1.1-1,1.8-1.3.7-.3,1.5-.5,2.4-.5s1.4,0,2,.2c.6.2,1,.3,1.4.5.4.2.7.4,1,.5.3.2.6.3.8.3.2,0,.3,0,.5-.1.1,0,.2-.2.3-.4,0-.1,0-.3.1-.5,0-.1,0-.3,0-.5,0-.3,0-.6,0-.8,0-.2-.2-.4-.4-.6Z"/>
    <path d="M74.5,647.7c0-.2-.1-.3-.3-.4-.1-.1-.3-.2-.5-.3-.2,0-.4,0-.6,0-.4,0-1.1,0-1.5,0-.2,0-.4,0-.5,0-.2,0-.4.2-.5.3-.1.1-.2.3-.2.4l-5.8,15.9c0,0,0-.2,0-.2,0-.2,0-.3-.1-.5,0-.1-.2-.3-.3-.3-.1-.1-.3-.2-.5-.2h-5.8v-14.6c0-.2,0-.3-.1-.5,0-.2-.2-.3-.4-.3-.1,0-.3,0-.5-.1-.3,0-.9,0-1.3,0-.2,0-.3,0-.5.1-.2,0-.3.2-.4.3,0,.1-.1.3-.1.5v16.2c0,.5.2.9.5,1.1.3.2.6.3.9.3h7.7c.2,0,.4,0,.5-.1.1,0,.2-.2.3-.3,0,.1.1.2.2.3.1.1.3.2.6.3.4,0,1,0,1.4,0,.2,0,.4,0,.5-.1.2,0,.3-.2.4-.3,0-.1.1-.2.2-.4l1.3-3.9h6.6l1.4,4c0,.1.1.2.2.3.1.1.2.2.4.3.1,0,.3,0,.5,0,.2,0,.4,0,.7,0s.5,0,.7,0c.3,0,.5-.1.6-.2.1-.1.3-.3.3-.7,0-.2,0-.4-.1-.6l-5.9-16.2ZM74.8,658h-4.7l2.3-6.7,2.4,6.7Z"/>
    <path d="M91.4,656.6c-.4-.4-.9-.8-1.4-1.1-.5-.3-1-.5-1.5-.8-.5-.2-1-.5-1.5-.7-.4-.2-.8-.4-1.2-.7-.3-.2-.6-.5-.8-.8-.2-.3-.3-.6-.3-1s0-.5.1-.8c0-.2.2-.4.4-.6.2-.2.4-.3.7-.4.6-.2,1.7-.2,2.4,0,.4.1.7.3,1,.4.3.2.5.3.7.4.6.3.9.3,1.2,0,.1-.1.2-.2.3-.4,0-.1,0-.2,0-.4,0-.1,0-.3,0-.5s0-.3,0-.5c0-.1,0-.3,0-.3,0-.1,0-.2-.1-.3,0,0-.1-.2-.3-.3-.1-.1-.3-.3-.7-.4-.3-.2-.6-.3-1-.4-.4-.1-.8-.2-1.2-.3-1.2-.2-2.5-.1-3.5.2-.7.2-1.3.5-1.9,1-.5.4-.9,1-1.2,1.6-.3.6-.4,1.4-.4,2.2s.1,1.5.4,2c.3.6.6,1.1,1,1.5.4.4.8.8,1.4,1.1.5.3,1,.6,1.5.8l1.5.7c.4.2.8.4,1.2.7.3.2.6.5.8.8.2.3.3.6.3,1s0,.7-.2,1c-.1.3-.3.5-.6.7-.3.2-.6.4-.9.5-.9.3-2.1.2-2.9,0-.5-.1-.9-.3-1.2-.5-.3-.2-.6-.3-.8-.5-.5-.4-.9-.4-1.3-.2-.1,0-.3.2-.3.4,0,.1,0,.3-.1.5,0,.1,0,.3,0,.6,0,.3,0,.6,0,.8,0,.2.2.4.3.6.1.1.4.3.7.5.3.2.6.3,1.1.5.4.2.9.3,1.4.4.5.1,1.1.2,1.7.2.9,0,1.7-.1,2.5-.4.8-.2,1.5-.6,2.1-1.1.6-.5,1.1-1.1,1.4-1.8.3-.7.5-1.5.5-2.4s-.1-1.4-.4-2c-.3-.6-.6-1.1-1-1.5Z"/>
    <path d="M104.1,656.6c-.4-.4-.9-.8-1.4-1.1-.5-.3-1-.5-1.5-.8-.5-.2-1-.5-1.5-.7-.4-.2-.8-.4-1.2-.7-.3-.2-.6-.5-.8-.8-.2-.3-.3-.6-.3-1s0-.5.1-.8c0-.2.2-.4.4-.6.2-.2.4-.3.7-.4.7-.2,1.7-.2,2.4,0,.4.1.7.3,1,.4.3.2.5.3.8.4.6.3.9.3,1.2,0,.1-.1.2-.2.3-.4,0-.1,0-.3,0-.4,0-.1,0-.3,0-.5s0-.3,0-.5c0-.1,0-.2,0-.4,0-.1,0-.2-.1-.3,0,0-.1-.2-.2-.3-.1-.1-.3-.3-.7-.4-.3-.2-.6-.3-1-.4-.4-.1-.8-.2-1.2-.3-1.2-.2-2.5-.1-3.5.2-.7.2-1.3.5-1.9,1-.5.4-.9,1-1.2,1.6-.3.6-.4,1.4-.4,2.2s.1,1.5.4,2c.3.6.6,1.1,1,1.5.4.4.8.8,1.4,1.1.5.3,1,.6,1.5.8l1.5.7c.4.2.8.4,1.2.7.3.2.6.5.8.8.2.3.3.6.3,1s0,.7-.2,1c-.1.3-.3.5-.6.7-.3.2-.6.4-.9.5-.9.3-2.1.2-2.9,0-.5-.1-.9-.3-1.2-.5-.3-.2-.6-.3-.8-.5-.5-.4-.9-.4-1.2-.2-.1,0-.3.2-.3.4,0,.1,0,.3-.1.5,0,.1,0,.3,0,.6,0,.3,0,.6,0,.8,0,.2.2.4.3.6.1.1.4.3.7.5.3.2.6.3,1.1.5.4.2.9.3,1.4.4.5.1,1.1.2,1.7.2.9,0,1.7-.1,2.5-.4.8-.2,1.5-.6,2.1-1.1.6-.5,1.1-1.1,1.4-1.8.3-.7.5-1.5.5-2.4s-.1-1.4-.4-2c-.3-.6-.6-1.1-1-1.5Z"/>
    <path d="M24.7,651.6c-3.5,0-6.4,2.9-6.4,6.4s2.9,6.4,6.4,6.4,6.4-2.9,6.4-6.4-2.9-6.4-6.4-6.4Z"/>
    <path d="M195.1,647.6c0-.2-.1-.3-.3-.4-.1-.1-.3-.2-.5-.3-.2,0-.3,0-.6,0-.4,0-1.1,0-1.5,0-.2,0-.4,0-.5,0-.2,0-.4.2-.5.3-.1.1-.2.3-.2.4l-5.9,16.2c0,.3-.1.5-.1.6,0,.3.1.5.3.7.1.1.3.2.6.3.4,0,1,0,1.4,0,.2,0,.4,0,.5-.1.2,0,.3-.2.4-.3,0-.1.1-.2.2-.3l1.3-3.9h6.6l1.4,4c0,.1.1.2.2.3,0,.1.2.2.4.3.1,0,.3,0,.5,0,.2,0,.4,0,.7,0s.5,0,.7,0c.3,0,.5-.1.6-.2.2-.2.3-.4.3-.7,0-.2,0-.4-.1-.6l-5.9-16.2ZM195.3,657.9h-4.7l2.3-6.7,2.4,6.7Z"/>
    <path d="M212.8,662.9c0-.2-.2-.3-.3-.4-.1,0-.3-.2-.5-.2h-5.8v-14.6c0-.2,0-.3-.1-.5,0-.1-.2-.3-.4-.3-.1,0-.3,0-.4-.1-.3,0-.9,0-1.3,0-.2,0-.3,0-.5.1-.2,0-.3.2-.4.3,0,.1-.1.3-.1.5v16.2c0,.5.2.9.5,1.1.3.2.6.3.9.3h7.7c.2,0,.4,0,.5-.1.1,0,.2-.2.3-.4,0-.1.1-.3.1-.4,0-.1,0-.3,0-.5s0-.4,0-.5c0-.2,0-.3-.1-.5Z"/>
    <path d="M227.5,646.9c-.1,0-.3,0-.4-.1-.3,0-.9,0-1.3,0-.2,0-.3,0-.4.1-.2,0-.3.2-.4.3,0,.1-.1.3-.1.5v10.7c0,.7,0,1.4-.3,1.9-.2.5-.4,1-.7,1.3-.3.3-.7.6-1.1.8-.9.3-2.3.4-3.2,0-.5-.2-.8-.4-1.2-.8-.3-.3-.6-.8-.8-1.3-.2-.5-.3-1.2-.3-2v-10.6c0-.2,0-.3-.1-.5,0-.1-.2-.2-.4-.3-.1,0-.3,0-.5-.1-.4,0-1,0-1.3,0-.2,0-.3,0-.4.1-.2,0-.3.2-.4.3,0,.1-.1.3-.1.5v10.9c0,1.1.2,2.1.5,3,.3.9.8,1.6,1.4,2.2.6.6,1.4,1,2.2,1.3.8.3,1.8.4,2.8.4s2.1-.2,3-.5c.9-.3,1.7-.8,2.3-1.4.6-.6,1.1-1.4,1.4-2.3.3-.9.5-1.9.5-3v-10.7c0-.2,0-.3-.2-.5,0-.1-.2-.2-.4-.3Z"/>
    <path d="M251.3,647.3c-.1-.1-.3-.2-.5-.3-.2,0-.4,0-.5,0h-1.5c-.3,0-.5,0-.7,0-.2,0-.4.2-.6.3-.2.1-.4.3-.5.6-.1.2-.3.5-.4.8l-4.8,11.6-4.6-11.6c0-.3-.2-.5-.3-.7-.1-.2-.3-.4-.5-.6-.2-.2-.5-.3-.7-.3-.3,0-.6,0-.9,0h-1.4c-.4,0-.7.1-1,.4-.3.3-.5.7-.5,1.2v16.1c0,.2,0,.3.1.4,0,.2.2.3.4.3.1,0,.3,0,.4.1.3,0,.9,0,1.3,0,.2,0,.3,0,.5-.1.2,0,.3-.2.4-.3,0-.1.1-.3.1-.5v-12.6l4.9,12.8c0,.1.1.3.2.4.1,0,.2.2.4.2.1,0,.3,0,.4.1.3,0,.8,0,1.1,0,.2,0,.3,0,.4,0,.2,0,.3-.1.4-.2.1,0,.2-.2.2-.3l5.2-13v12.7c0,.2,0,.3.1.5,0,.1.2.2.4.3.1,0,.3,0,.5.1.2,0,.4,0,.6,0s.5,0,.6,0c.2,0,.3,0,.4-.1.2,0,.3-.2.4-.3,0-.1.1-.3.1-.5v-16.1c0-.3,0-.5-.1-.7,0-.2-.2-.4-.3-.5Z"/>
    <path d="M258.1,646.9c-.1,0-.3,0-.4-.1-.3,0-.9,0-1.2,0-.2,0-.3,0-.5.1-.2,0-.3.2-.5.3-.1.1-.2.3-.2.5v16.8c0,.2,0,.3.1.5,0,.1.2.2.4.3.1,0,.3,0,.5.1.2,0,.4,0,.6,0s.5,0,.6,0c.2,0,.3,0,.5-.1.2,0,.3-.2.4-.3,0-.1.1-.3.1-.5v-16.8c0-.2,0-.3-.1-.5,0-.1-.2-.3-.4-.3Z"/>
    <path d="M276,647c-.1,0-.3-.1-.5-.1-.4,0-.9,0-1.2,0-.2,0-.4,0-.5.1-.2,0-.3.2-.4.3,0,.1-.1.3-.1.5v9.5c0,.7,0,1.5,0,2.2,0,0,0,0,0,0l-.3-.6c-.2-.4-.4-.9-.7-1.3-.2-.4-.5-.9-.7-1.4l-4.1-7.7c-.2-.3-.3-.6-.5-.8-.2-.2-.3-.4-.5-.5-.2-.1-.4-.2-.7-.3-.2,0-.5,0-.8,0h-1.1c-.3,0-.7.1-1,.3-.3.3-.5.6-.5,1.2v16.1c0,.2,0,.3.1.5,0,.1.2.3.4.3.1,0,.3,0,.4.1.2,0,.4,0,.6,0s.5,0,.6,0c.2,0,.3,0,.5-.1.2,0,.3-.2.4-.3,0-.1.1-.3.1-.5v-10.6c0-.6,0-1.2,0-1.8.2.5.5.9.7,1.3l5.3,9.9c.2.4.4.7.6.9.2.3.4.5.6.6.2.2.4.3.7.4.2,0,.5,0,.8,0h.8c.2,0,.3,0,.5,0,.2,0,.4-.1.5-.3.2-.1.3-.3.4-.5,0-.2.1-.4.1-.7v-16.1c0-.2,0-.3-.1-.5,0-.1-.2-.2-.4-.3Z"/>
    <path d="M283,646.9c-.1,0-.3,0-.4-.1-.3,0-.9,0-1.2,0-.2,0-.3,0-.4.1-.2,0-.3.2-.4.3-.1.1-.2.3-.2.5v16.8c0,.2,0,.3.1.5,0,.1.2.3.4.3.1,0,.3,0,.5.1.2,0,.4,0,.6,0s.5,0,.6,0c.2,0,.3,0,.5-.1.2,0,.3-.2.4-.3,0-.1.1-.3.1-.5v-16.8c0-.2,0-.3-.1-.5,0-.1-.2-.3-.4-.3Z"/>
    <path d="M300.8,646.9c-.1,0-.3,0-.5-.1-.3,0-.9,0-1.3,0-.2,0-.3,0-.4.1-.2,0-.3.2-.4.3,0,.1-.1.3-.1.5v10.7c0,.7,0,1.4-.3,1.9-.2.5-.4,1-.7,1.3-.3.3-.7.6-1.1.8-.9.3-2.3.4-3.2,0-.5-.2-.8-.4-1.2-.8-.3-.3-.6-.8-.8-1.3-.2-.6-.3-1.2-.3-2v-10.6c0-.2,0-.3-.1-.5,0-.1-.2-.2-.4-.3-.1,0-.3,0-.5-.1-.4,0-1,0-1.3,0-.2,0-.3,0-.4.1-.2,0-.3.2-.4.3,0,.1-.1.3-.1.5v10.9c0,1.1.2,2.1.5,3,.3.9.8,1.6,1.4,2.2.6.6,1.4,1,2.2,1.3.8.3,1.8.4,2.8.4s2.1-.2,3-.5c.9-.3,1.7-.8,2.3-1.4.6-.6,1.1-1.4,1.4-2.3.3-.9.5-1.9.5-3v-10.7c0-.2,0-.3-.2-.5,0-.1-.2-.2-.4-.3Z"/>
    <path d="M324.5,647.3c-.1-.1-.3-.2-.5-.3-.2,0-.4,0-.5,0h-1.5c-.3,0-.5,0-.7,0-.2,0-.4.2-.6.3-.2.1-.4.3-.5.6-.1.2-.3.5-.4.8l-4.8,11.6-4.6-11.6c0-.3-.2-.5-.3-.7-.1-.2-.3-.4-.5-.6-.2-.2-.5-.3-.7-.3-.3,0-.6,0-.9,0h-1.4c-.4,0-.7.1-1,.4-.3.3-.5.7-.5,1.2v16.1c0,.2,0,.3.1.4,0,.2.2.3.4.3.1,0,.3,0,.4.1.3,0,.9,0,1.3,0,.2,0,.3,0,.5-.1.2,0,.3-.2.4-.3,0-.1.1-.3.1-.5v-12.6l4.9,12.8c0,.1.1.3.2.4.1,0,.2.2.4.2.1,0,.3,0,.4,0,.3,0,.8,0,1.1,0,.2,0,.3,0,.4,0,.2,0,.3-.1.4-.2.1,0,.2-.2.2-.3l5.2-13v12.7c0,.2,0,.3.1.5,0,.1.2.2.4.3.1,0,.3,0,.5.1.2,0,.4,0,.6,0s.5,0,.6,0c.2,0,.3,0,.4-.1.2,0,.3-.2.4-.3,0-.1.1-.3.1-.5v-16.1c0-.3,0-.5-.1-.7,0-.2-.2-.4-.3-.5Z"/>
    <path d="M174.5,649.8c-3.5,0-6.4,2.9-6.4,6.4s2.9,6.4,6.4,6.4,6.4-2.9,6.4-6.4c0-3.5-2.9-6.4-6.4-6.4Z"/>
    <path d="M428.5,661.5c0-.2-.2-.3-.3-.4-.3-.2-.7-.1-1.3.2-.2.2-.5.3-.9.5-.3.2-.8.4-1.2.5-.5.2-1,.2-1.7.2s-1.4-.1-2-.4c-.6-.3-1.1-.6-1.5-1.2-.4-.5-.7-1.2-.9-2-.2-.8-.3-1.7-.3-2.8s.1-2,.4-2.8c.2-.8.6-1.5,1-2,.4-.5.9-1,1.5-1.2,1.1-.5,2.6-.5,3.6-.2.5.2.9.3,1.2.5.3.2.6.4.8.5.6.4,1,.4,1.3.2.1,0,.2-.2.3-.4,0-.1,0-.3.1-.4,0-.1,0-.3,0-.5s0-.3,0-.5c0-.1,0-.3,0-.4,0-.1,0-.2-.1-.3,0-.1-.2-.2-.3-.4-.2-.2-.4-.3-.8-.5-.3-.2-.7-.4-1.2-.5-.4-.2-.9-.3-1.4-.4-.5,0-1-.2-1.6-.2-1.2,0-2.3.2-3.3.7-1,.4-1.9,1.1-2.6,1.9-.7.8-1.3,1.9-1.7,3.1-.4,1.2-.6,2.5-.6,4,0,1.5.2,2.8.5,3.9.4,1.1.9,2.1,1.6,2.9.7.8,1.5,1.4,2.5,1.8,1,.4,2.1.6,3.3.6s1.3,0,1.9-.2c.6-.1,1.1-.3,1.6-.5.5-.2.8-.4,1.2-.6.4-.3.6-.4.7-.5.1-.1.2-.2.3-.3,0,0,.1-.2.1-.3,0-.1,0-.2,0-.4,0-.1,0-.3,0-.4,0-.2,0-.4,0-.6,0-.2,0-.3,0-.4Z"/>
    <path d="M444.1,649.2c-.7-.8-1.6-1.4-2.6-1.8-1-.4-2.2-.6-3.6-.6s-2.6.2-3.7.7c-1.1.5-2,1.1-2.7,2-.7.8-1.2,1.9-1.6,3.1-.3,1.2-.5,2.5-.5,3.9s.2,2.8.5,4c.3,1.2.8,2.2,1.5,3,.7.8,1.5,1.4,2.6,1.8,1,.4,2.2.6,3.6.6s2.6-.2,3.7-.7c1.1-.5,2-1.1,2.7-2,.7-.8,1.2-1.9,1.6-3.1.3-1.2.5-2.5.5-4s-.2-2.8-.5-3.9c-.3-1.2-.8-2.1-1.5-2.9ZM442.6,656.2c0,.9,0,1.8-.3,2.6-.2.8-.4,1.5-.8,2.1-.4.6-.9,1-1.5,1.4s-1.4.5-2.3.5-1.7-.2-2.3-.5c-.6-.3-1.1-.7-1.4-1.3-.4-.6-.6-1.3-.8-2.1-.2-.8-.2-1.7-.2-2.7s0-1.7.3-2.5c.2-.8.5-1.5.8-2,.4-.6.9-1,1.5-1.4.6-.3,1.4-.5,2.3-.5s1.7.2,2.3.5c.6.3,1.1.7,1.5,1.3.4.6.6,1.3.8,2,.2.8.3,1.7.3,2.7Z"/>
    <path d="M458.6,662.9c0-.2-.2-.3-.3-.4-.1,0-.3-.2-.5-.2h-5.8v-14.6c0-.2,0-.3-.1-.5,0-.1-.2-.3-.4-.3-.1,0-.3,0-.4,0-.3,0-.9,0-1.3,0-.2,0-.3,0-.5.1-.2,0-.3.2-.4.3,0,.1-.1.3-.1.5v16.2c0,.5.2.9.5,1.1.3.2.6.3.9.3h7.7c.2,0,.4,0,.5-.1.1,0,.2-.2.3-.4,0-.1.1-.3.1-.5,0-.1,0-.3,0-.5s0-.4,0-.5c0-.2,0-.3-.1-.5Z"/>
    <path d="M473.4,649.2c-.7-.8-1.6-1.4-2.6-1.8-1-.4-2.2-.6-3.6-.6s-2.6.2-3.7.7c-1.1.5-2,1.1-2.7,2-.7.8-1.2,1.9-1.6,3.1-.3,1.2-.5,2.5-.5,3.9s.2,2.8.5,4c.3,1.2.8,2.2,1.5,3,.7.8,1.5,1.4,2.6,1.8,1,.4,2.2.6,3.6.6s2.6-.2,3.7-.7c1.1-.5,2-1.1,2.7-2,.7-.9,1.2-1.9,1.6-3.1.3-1.2.5-2.5.5-4s-.2-2.8-.5-3.9c-.3-1.2-.8-2.1-1.5-2.9ZM472,656.2c0,.9,0,1.8-.3,2.6-.2.8-.4,1.5-.8,2.1-.4.6-.9,1-1.5,1.4-.6.3-1.4.5-2.3.5s-1.7-.2-2.3-.5c-.6-.3-1.1-.7-1.4-1.3-.4-.6-.6-1.3-.8-2.1-.2-.8-.2-1.7-.2-2.7s0-1.7.3-2.5c.2-.8.5-1.5.8-2,.4-.6.9-1,1.5-1.4.6-.3,1.4-.5,2.3-.5s1.7.2,2.3.5c.6.3,1.1.7,1.5,1.3.4.6.6,1.3.8,2,.2.8.3,1.7.3,2.7Z"/>
    <path d="M490.4,663.4l-1.6-3.9c-.2-.5-.4-.9-.6-1.2-.2-.4-.4-.7-.6-1-.2-.3-.5-.6-.7-.8,0,0,0,0,0,0,.2-.1.4-.2.6-.3.5-.3.9-.6,1.2-1,.3-.4.6-.9.8-1.4.2-.5.3-1.1.3-1.7s0-1.3-.3-1.8c-.2-.6-.5-1.1-.9-1.5-.4-.4-.9-.8-1.5-1.1-.6-.3-1.2-.5-2-.6-.2,0-.5,0-.8,0-.3,0-.7,0-1.1,0h-3.7c-.3,0-.6.1-.9.3-.3.2-.5.6-.5,1.1v16.2c0,.2,0,.3.1.5,0,.1.2.3.4.3.1,0,.3,0,.4.1.3,0,.9,0,1.3,0,.2,0,.3,0,.5-.1.2,0,.3-.2.4-.3.1-.1.2-.3.2-.5v-6.9h1.1c.5,0,.9,0,1.2.2.3.1.6.3.8.6.2.2.5.5.6.9.2.4.4.8.6,1.2l1.6,4.1c0,.2.1.3.2.4.1.1.2.3.4.3.1,0,.3.1.5.1.2,0,.4,0,.6,0s.5,0,.7,0c.2,0,.4,0,.5-.1.2,0,.3-.2.4-.4,0-.1,0-.3,0-.4s0-.3,0-.4c0-.1-.1-.4-.3-.7ZM486.1,653.3c-.1.3-.3.5-.5.7-.2.2-.6.4-.9.5-.4.1-.9.2-1.4.2h-1.8v-4.9h1.5c.4,0,.8,0,1.1,0,.3,0,.5,0,.7.1.6.2,1,.4,1.3.8.3.4.4.9.4,1.5s0,.7-.2,1Z"/>
    <path d="M504.5,656.7c-.3-.4-.8-.8-1.2-1-.1,0-.3-.1-.4-.2,0,0,0,0,.1-.1.3-.3.6-.6.8-1,.2-.4.4-.8.5-1.2.1-.4.2-.9.2-1.3,0-.8-.1-1.4-.4-2.1-.3-.6-.6-1.2-1.1-1.6-.5-.4-1.1-.7-1.8-1-.7-.2-1.6-.3-2.7-.3h-4c-.3,0-.6.1-.9.3-.3.2-.5.6-.5,1.1v15.6c0,.5.2.9.5,1.1.3.2.6.3.9.3h4.6c.7,0,1.3,0,1.8-.2.5-.1,1.1-.3,1.5-.5.5-.2.9-.5,1.3-.8.4-.3.7-.7,1-1.1.3-.4.5-.9.7-1.4.2-.5.2-1.1.2-1.7s-.1-1.3-.3-1.8c-.2-.5-.5-1-.8-1.4ZM496.4,657.4h2.3c.7,0,1.2,0,1.7.2.4.1.8.3,1,.5.3.2.5.5.6.8.1.3.2.7.2,1.2s0,.8-.2,1.1c-.1.3-.3.5-.6.8-.2.2-.5.4-.9.5-.3.1-.8.2-1.2.2h-2.9v-5.2ZM501,653.1c0,.3-.2.5-.4.7-.2.2-.4.4-.7.5-.3.1-.7.2-1.3.2h-2.1v-4.7h1.9c.6,0,1.1,0,1.5.2.3.1.6.2.8.4.2.2.3.4.4.7,0,.3.1.6.1,1s0,.6-.1,1Z"/>
    <path d="M521.8,649.2c-.7-.8-1.6-1.4-2.6-1.8-1-.4-2.2-.6-3.6-.6s-2.6.2-3.7.7c-1.1.5-2,1.1-2.7,2-.7.8-1.2,1.9-1.6,3.1-.3,1.2-.5,2.5-.5,3.9s.2,2.8.5,4c.3,1.2.8,2.2,1.5,3,.7.8,1.5,1.4,2.6,1.8,1,.4,2.2.6,3.6.6s2.6-.2,3.7-.7c1.1-.5,2-1.1,2.7-2,.7-.8,1.2-1.9,1.6-3.1.3-1.2.5-2.5.5-4s-.2-2.8-.5-3.9c-.3-1.2-.8-2.1-1.5-2.9ZM520.4,656.2c0,.9,0,1.8-.3,2.6-.2.8-.4,1.5-.8,2.1-.4.6-.9,1-1.5,1.4-.6.3-1.4.5-2.3.5s-1.7-.2-2.3-.5c-.6-.3-1.1-.7-1.4-1.3-.4-.6-.6-1.3-.8-2.1-.2-.8-.2-1.7-.2-2.7s0-1.7.3-2.5c.2-.8.5-1.5.8-2,.4-.6.9-1,1.5-1.4.6-.3,1.4-.5,2.3-.5s1.7.2,2.3.5c.6.3,1.1.7,1.5,1.3.4.6.6,1.3.8,2,.2.8.3,1.7.3,2.7Z"/>
    <path d="M540.6,647.4c0-.1-.2-.2-.4-.3-.1,0-.3-.1-.5-.1-.4,0-.9,0-1.2,0-.2,0-.4,0-.5.1-.2,0-.3.2-.4.3,0,.1-.1.3-.1.5v9.5c0,.7,0,1.5,0,2.2,0,0,0,0,0,0l-.3-.6c-.2-.4-.4-.9-.7-1.3-.2-.4-.5-.9-.7-1.4l-4.1-7.7c-.2-.3-.3-.6-.5-.8-.2-.2-.3-.4-.5-.5-.2-.1-.4-.2-.7-.3-.2,0-.5,0-.8,0h-1.1c-.3,0-.7.1-1,.3-.2.2-.5.5-.5,1.2v16.1c0,.2,0,.3.1.4,0,.1.2.3.4.3.1,0,.3,0,.4.1.2,0,.4,0,.6,0s.5,0,.6,0c.2,0,.3,0,.5-.1.2,0,.3-.2.4-.3,0-.1.1-.3.1-.5v-10.6c0-.6,0-1.2,0-1.8.2.5.5.9.7,1.3l5.3,9.9c.2.4.4.7.6.9.2.3.4.5.6.6.2.2.5.3.7.4.2,0,.5,0,.8,0h.8c.2,0,.3,0,.5,0,.2,0,.4-.1.5-.3.2-.1.3-.3.4-.5,0-.2.1-.4.1-.7v-16.1c0-.2,0-.3-.2-.5Z"/>
    <path d="M556.5,649.4c-.8-.8-1.7-1.4-2.8-1.8-1.1-.4-2.4-.6-4-.6h-4c-.3,0-.6.1-.9.3-.3.2-.5.6-.5,1.1v15.6c0,.5.2.9.5,1.1.3.2.6.3.9.3h3.7c1.5,0,2.9-.2,4-.6,1.1-.4,2.1-1,2.9-1.8.8-.8,1.4-1.8,1.8-3,.4-1.2.6-2.6.6-4.1,0-1.4-.2-2.6-.6-3.7-.4-1.1-1-2.1-1.7-2.8ZM555.4,656c0,1.1-.1,2.1-.4,2.9-.2.8-.6,1.5-1.1,2-.5.5-1,.9-1.7,1.1-.7.3-1.6.4-2.7.4h-1.9v-12.6h1.9c1.1,0,2.1.2,2.8.5.7.3,1.3.7,1.7,1.3.5.5.8,1.2,1,1.9.2.8.3,1.6.3,2.5Z"/>
    <path d="M402.9,649.8c-3.5,0-6.4,2.9-6.4,6.4s2.9,6.4,6.4,6.4,6.4-2.9,6.4-6.4c0-3.5-2.9-6.4-6.4-6.4Z"/>
    <circle cx="647.7" cy="656.2" r="6.4"/>
    <path d="M673.7,648.8c-.6-.4-1.4-.7-2.4-.9-.6-.1-1.5-.2-2.7-.2h-7.1v18.5h3.3v-7.1h4c2.6,0,4.4-.6,5.5-1.7,1-1.1,1.6-2.5,1.6-4.1s-.2-1.8-.6-2.6c-.4-.8-.9-1.4-1.6-1.9ZM672.5,653.4c0,.9-.3,1.5-.8,2-.5.5-1.5.7-2.9.7h-4v-5.3h4c1.2,0,1.8,0,2,.1.5.1.9.4,1.2.8.3.4.5,1,.5,1.6Z"/>
    <path d="M685,660.8c-.2.4-.3.9-.5,1.3-.1-.4-.3-.9-.5-1.3l-4.7-13h-3.6l7.2,18.5h3.1l7.2-18.5h-3.4l-4.8,13Z"/>
    <path d="M706.7,659v.5c-.4,1.4-1,2.4-1.8,3.1-.8.7-1.8,1-3,1s-1.9-.3-2.7-.8c-.8-.5-1.4-1.2-1.8-2.2-.4-1-.6-2.3-.6-3.7s.2-2.2.5-3.2c.3-1,.9-1.8,1.7-2.3.8-.6,1.9-.9,3.1-.9s1.9.3,2.6.8c.7.5,1.2,1.4,1.6,2.5v.4c.1,0,3.4-.8,3.4-.8v-.5c-.6-1.7-1.5-3.1-2.8-4-1.3-1-2.9-1.4-4.7-1.4s-3.1.4-4.5,1.1c-1.4.8-2.4,1.9-3.2,3.3-.7,1.4-1.1,3.1-1.1,5s.3,3.4,1,4.9c.7,1.5,1.6,2.7,2.9,3.6,1.3.8,2.9,1.2,4.9,1.2s3.6-.5,4.9-1.6c1.3-1.1,2.3-2.6,2.8-4.6v-.5c.1,0-3.2-.8-3.2-.8Z"/>
  </g>
  <polygon points="54.4 592.2 54.4 597.6 38.6 597.6 38.6 613.8 33.3 613.8 33.3 574.9 57.3 574.9 57.3 580.2 38.6 580.2 38.6 592.2 54.4 592.2"/>
  <polygon points="54.4 592.2 54.4 597.6 38.6 597.6 38.6 613.8 33.3 613.8 33.3 574.9 57.3 574.9 57.3 580.2 38.6 580.2 38.6 592.2 54.4 592.2"/>
  <polygon points="103.8 613.8 79.8 613.8 79.8 574.9 103.8 574.9 103.8 580.2 85.1 580.2 85.1 591.5 100.3 591.5 100.3 596.8 85.1 596.8 85.1 608.4 103.8 608.4 103.8 613.8"/>
  <polygon points="103.8 613.8 79.8 613.8 79.8 574.9 103.8 574.9 103.8 580.2 85.1 580.2 85.1 591.5 100.3 591.5 100.3 596.8 85.1 596.8 85.1 608.4 103.8 608.4 103.8 613.8"/>
  <path d="M159.9,613.8h-4.4l-22.3-30.4c-.1-.2-.3-.4-.4-.7-.1-.2-.2-.5-.3-.7,0-.3-.1-.6-.2-.9v32.7h-5.4v-38.9h3.8c.9,0,1.6.1,2.3.4.7.3,1.2.6,1.5,1.2l18.9,26c.5.7.8,1.6.9,2.7v-30.2h5.4v38.9Z"/>
  <path d="M159.9,613.8h-4.4l-22.3-30.4c-.1-.2-.3-.4-.4-.7-.1-.2-.2-.5-.3-.7,0-.3-.1-.6-.2-.9v32.7h-5.4v-38.9h3.8c.9,0,1.6.1,2.3.4.7.3,1.2.6,1.5,1.2l18.9,26c.5.7.8,1.6.9,2.7v-30.2h5.4v38.9Z"/>
  <path d="M188.2,594.3c0,2,.4,3.9,1.1,5.7.8,1.8,1.8,3.3,3.1,4.6,1.3,1.3,2.8,2.4,4.6,3.1,1.8.8,3.6,1.1,5.7,1.1s3-.2,4.4-.7c1.4-.5,2.7-1.1,3.9-1.9.7-.5,1.4-.7,2.3-.7s1.2.1,1.7.3c.5.2.9.5,1.3,1l1,1c-.9,1-1.9,1.9-3,2.6-1.1.8-2.3,1.5-3.5,2-1.2.5-2.5,1-3.9,1.3-1.4.3-2.8.4-4.2.4-2.8,0-5.3-.5-7.7-1.6-2.4-1-4.5-2.5-6.3-4.3-1.8-1.8-3.2-3.9-4.3-6.3-1-2.4-1.6-5-1.6-7.7s.2-3.6.7-5.3c.5-1.7,1.1-3.3,2-4.8.9-1.5,1.9-2.8,3.1-4,1.2-1.2,2.5-2.2,4-3.1,1.5-.9,3.1-1.5,4.8-2,1.7-.5,3.5-.7,5.3-.7s2.8.1,4.2.4c1.4.3,2.7.7,3.9,1.3,1.2.5,2.4,1.2,3.5,2,1.1.8,2.1,1.7,3,2.6l-1,1c-.4.4-.9.7-1.4,1-.5.2-1.1.3-1.7.3s-1.6-.2-2.3-.7c-1.2-.8-2.5-1.4-3.9-1.9-1.4-.5-2.8-.7-4.4-.7s-3.9.4-5.7,1.1c-1.8.8-3.3,1.8-4.6,3.1-1.3,1.3-2.4,2.8-3.1,4.6-.8,1.8-1.1,3.6-1.1,5.7"/>
  <path d="M188.2,594.3c0,2,.4,3.9,1.1,5.7.8,1.8,1.8,3.3,3.1,4.6,1.3,1.3,2.8,2.4,4.6,3.1,1.8.8,3.6,1.1,5.7,1.1s3-.2,4.4-.7c1.4-.5,2.7-1.1,3.9-1.9.7-.5,1.4-.7,2.3-.7s1.2.1,1.7.3c.5.2.9.5,1.3,1l1,1c-.9,1-1.9,1.9-3,2.6-1.1.8-2.3,1.5-3.5,2-1.2.5-2.5,1-3.9,1.3-1.4.3-2.8.4-4.2.4-2.8,0-5.3-.5-7.7-1.6-2.4-1-4.5-2.5-6.3-4.3-1.8-1.8-3.2-3.9-4.3-6.3-1-2.4-1.6-5-1.6-7.7s.2-3.6.7-5.3c.5-1.7,1.1-3.3,2-4.8.9-1.5,1.9-2.8,3.1-4,1.2-1.2,2.5-2.2,4-3.1,1.5-.9,3.1-1.5,4.8-2,1.7-.5,3.5-.7,5.3-.7s2.8.1,4.2.4c1.4.3,2.7.7,3.9,1.3,1.2.5,2.4,1.2,3.5,2,1.1.8,2.1,1.7,3,2.6l-1,1c-.4.4-.9.7-1.4,1-.5.2-1.1.3-1.7.3s-1.6-.2-2.3-.7c-1.2-.8-2.5-1.4-3.9-1.9-1.4-.5-2.8-.7-4.4-.7s-3.9.4-5.7,1.1c-1.8.8-3.3,1.8-4.6,3.1-1.3,1.3-2.4,2.8-3.1,4.6-.8,1.8-1.1,3.6-1.1,5.7"/>
  <rect x="240.9" y="574.9" width="5.4" height="38.9"/>
  <rect x="240.9" y="574.9" width="5.4" height="38.9"/>
  <path d="M305.2,613.8h-4.4l-22.3-30.4c-.1-.2-.3-.4-.4-.7-.1-.2-.2-.5-.3-.7,0-.3-.1-.6-.2-.9v32.7h-5.4v-38.9h3.8c.9,0,1.6.1,2.3.4.7.3,1.2.6,1.5,1.2l18.9,26c.5.7.8,1.6.9,2.7v-30.2h5.4v38.9Z"/>
  <path d="M305.2,613.8h-4.4l-22.3-30.4c-.1-.2-.3-.4-.4-.7-.1-.2-.2-.5-.3-.7,0-.3-.1-.6-.2-.9v32.7h-5.4v-38.9h3.8c.9,0,1.6.1,2.3.4.7.3,1.2.6,1.5,1.2l18.9,26c.5.7.8,1.6.9,2.7v-30.2h5.4v38.9Z"/>
  <path d="M362.4,594v15.7c-.9.9-1.9,1.7-3,2.2-1.1.6-2.3,1.1-3.5,1.4-1.2.3-2.5.6-3.8.7-1.3.1-2.7.2-4.1.2-2.8,0-5.3-.5-7.7-1.6-2.4-1-4.5-2.5-6.3-4.3-1.8-1.8-3.2-3.9-4.3-6.3-1-2.4-1.6-5-1.6-7.7s.2-3.6.7-5.3c.5-1.7,1.1-3.3,2-4.8.9-1.5,1.9-2.8,3.1-4,1.2-1.2,2.5-2.2,4-3.1,1.5-.9,3.1-1.5,4.8-2,1.7-.5,3.5-.7,5.3-.7s2.8.1,4.2.4c1.4.3,2.7.7,3.9,1.3,1.2.5,2.4,1.2,3.5,2,1.1.8,2.1,1.7,3,2.6l-1,1c-.4.4-.9.8-1.4,1-.5.2-1,.3-1.7.3s-1.6-.2-2.3-.7c-1.2-.8-2.5-1.4-3.9-1.9-1.4-.5-2.8-.7-4.4-.7s-3.9.4-5.7,1.1c-1.8.8-3.3,1.8-4.6,3.1-1.3,1.3-2.4,2.8-3.1,4.6-.8,1.8-1.1,3.6-1.1,5.7s.4,3.9,1.2,5.7c.8,1.8,1.9,3.3,3.2,4.6,1.3,1.3,2.9,2.4,4.7,3.1,1.8.8,3.7,1.1,5.7,1.1s3.2-.2,4.7-.6c1.5-.4,2.8-1,4.1-1.8v-7.1h-2.2c-.6,0-1.2-.1-1.7-.3-.5-.2-1-.5-1.3-.9-.4-.4-.6-.8-.8-1.3-.2-.5-.3-1-.3-1.6v-1.2h11.7Z"/>
  <path d="M362.4,594v15.7c-.9.9-1.9,1.7-3,2.2-1.1.6-2.3,1.1-3.5,1.4-1.2.3-2.5.6-3.8.7-1.3.1-2.7.2-4.1.2-2.8,0-5.3-.5-7.7-1.6-2.4-1-4.5-2.5-6.3-4.3-1.8-1.8-3.2-3.9-4.3-6.3-1-2.4-1.6-5-1.6-7.7s.2-3.6.7-5.3c.5-1.7,1.1-3.3,2-4.8.9-1.5,1.9-2.8,3.1-4,1.2-1.2,2.5-2.2,4-3.1,1.5-.9,3.1-1.5,4.8-2,1.7-.5,3.5-.7,5.3-.7s2.8.1,4.2.4c1.4.3,2.7.7,3.9,1.3,1.2.5,2.4,1.2,3.5,2,1.1.8,2.1,1.7,3,2.6l-1,1c-.4.4-.9.8-1.4,1-.5.2-1,.3-1.7.3s-1.6-.2-2.3-.7c-1.2-.8-2.5-1.4-3.9-1.9-1.4-.5-2.8-.7-4.4-.7s-3.9.4-5.7,1.1c-1.8.8-3.3,1.8-4.6,3.1-1.3,1.3-2.4,2.8-3.1,4.6-.8,1.8-1.1,3.6-1.1,5.7s.4,3.9,1.2,5.7c.8,1.8,1.9,3.3,3.2,4.6,1.3,1.3,2.9,2.4,4.7,3.1,1.8.8,3.7,1.1,5.7,1.1s3.2-.2,4.7-.6c1.5-.4,2.8-1,4.1-1.8v-7.1h-2.2c-.6,0-1.2-.1-1.7-.3-.5-.2-1-.5-1.3-.9-.4-.4-.6-.8-.8-1.3-.2-.5-.3-1-.3-1.6v-1.2h11.7Z"/>
  <path d="M437.5,598.8l2.6,2.6,2.9-3.9c.5-.8,1.2-1.4,2-1.8.8-.4,1.7-.6,2.8-.6h3.7l-7.6,10.2,8.7,8.6h-4.2c-.7,0-1.4,0-1.9-.2-.5-.1-1-.3-1.4-.5s-.8-.5-1.2-.8-.7-.6-1.1-1l-2.2-2.2c-1.6,1.7-3.4,2.9-5.3,3.8-1.9.9-3.9,1.3-6,1.3s-3.5-.3-5.1-.9c-1.6-.6-2.9-1.5-4.1-2.6-1.2-1.1-2.1-2.4-2.7-3.8-.7-1.5-1-3-1-4.7s.1-1.9.4-2.8c.2-.9.6-1.8,1-2.6.4-.9,1-1.6,1.6-2.4.6-.7,1.3-1.4,2.1-2,.2-.1.4-.2.7-.2s.6,0,.9.3.7.4,1.1.6c-1-1-1.8-2.2-2.3-3.5-.5-1.3-.8-2.7-.8-4.2s.3-3.1.9-4.4c.6-1.3,1.3-2.5,2.3-3.4,1-1,2.1-1.7,3.3-2.2,1.3-.5,2.6-.8,4-.8s2.3.1,3.4.4c1.1.3,2.2.7,3.2,1.2,1,.5,2,1.2,2.8,2,.9.8,1.7,1.7,2.4,2.8l-1.8.6c-.5.2-1,.3-1.4.4s-.8.1-1.2.1-.9,0-1.2-.1c-.3,0-.6-.2-.9-.3-.3-.1-.5-.3-.7-.4-.2-.1-.4-.3-.5-.4-1.1-.7-2.5-1.1-4.2-1.1s-1.4.1-2,.4c-.6.3-1.2.7-1.7,1.2-.5.5-.9,1.1-1.2,1.8-.3.7-.4,1.5-.4,2.3s.1,1.4.4,2.1c.3.7.7,1.4,1.3,2l9.4,9.4ZM433.2,601.8l-6.4-6.4c-.7.3-1.4.6-2,1-.6.4-1.2.9-1.7,1.5-.5.6-.8,1.2-1.1,1.9-.3.7-.4,1.4-.4,2.2,0,1.2.2,2.2.6,3,.4.9,1,1.6,1.7,2.1.7.6,1.5,1,2.4,1.3.9.3,1.9.4,2.9.4,2.8,0,5.4-1.2,7.7-3.5l-3.7-3.7Z"/>
  <path d="M437.5,598.8l2.6,2.6,2.9-3.9c.5-.8,1.2-1.4,2-1.8.8-.4,1.7-.6,2.8-.6h3.7l-7.6,10.2,8.7,8.6h-4.2c-.7,0-1.4,0-1.9-.2-.5-.1-1-.3-1.4-.5s-.8-.5-1.2-.8-.7-.6-1.1-1l-2.2-2.2c-1.6,1.7-3.4,2.9-5.3,3.8-1.9.9-3.9,1.3-6,1.3s-3.5-.3-5.1-.9c-1.6-.6-2.9-1.5-4.1-2.6-1.2-1.1-2.1-2.4-2.7-3.8-.7-1.5-1-3-1-4.7s.1-1.9.4-2.8c.2-.9.6-1.8,1-2.6.4-.9,1-1.6,1.6-2.4.6-.7,1.3-1.4,2.1-2,.2-.1.4-.2.7-.2s.6,0,.9.3.7.4,1.1.6c-1-1-1.8-2.2-2.3-3.5-.5-1.3-.8-2.7-.8-4.2s.3-3.1.9-4.4c.6-1.3,1.3-2.5,2.3-3.4,1-1,2.1-1.7,3.3-2.2,1.3-.5,2.6-.8,4-.8s2.3.1,3.4.4c1.1.3,2.2.7,3.2,1.2,1,.5,2,1.2,2.8,2,.9.8,1.7,1.7,2.4,2.8l-1.8.6c-.5.2-1,.3-1.4.4s-.8.1-1.2.1-.9,0-1.2-.1c-.3,0-.6-.2-.9-.3-.3-.1-.5-.3-.7-.4-.2-.1-.4-.3-.5-.4-1.1-.7-2.5-1.1-4.2-1.1s-1.4.1-2,.4c-.6.3-1.2.7-1.7,1.2-.5.5-.9,1.1-1.2,1.8-.3.7-.4,1.5-.4,2.3s.1,1.4.4,2.1c.3.7.7,1.4,1.3,2l9.4,9.4ZM433.2,601.8l-6.4-6.4c-.7.3-1.4.6-2,1-.6.4-1.2.9-1.7,1.5-.5.6-.8,1.2-1.1,1.9-.3.7-.4,1.4-.4,2.2,0,1.2.2,2.2.6,3,.4.9,1,1.6,1.7,2.1.7.6,1.5,1,2.4,1.3.9.3,1.9.4,2.9.4,2.8,0,5.4-1.2,7.7-3.5l-3.7-3.7Z"/>
  <path d="M537.3,594v15.7c-.9.9-1.9,1.7-3,2.2-1.1.6-2.3,1.1-3.5,1.4-1.2.3-2.5.6-3.8.7-1.3.1-2.7.2-4.1.2-2.8,0-5.3-.5-7.7-1.6-2.4-1-4.5-2.5-6.3-4.3-1.8-1.8-3.2-3.9-4.3-6.3-1-2.4-1.6-5-1.6-7.7s.2-3.6.7-5.3c.5-1.7,1.1-3.3,2-4.8.9-1.5,1.9-2.8,3.1-4,1.2-1.2,2.5-2.2,4-3.1,1.5-.9,3.1-1.5,4.8-2,1.7-.5,3.5-.7,5.3-.7s2.8.1,4.2.4c1.4.3,2.7.7,3.9,1.3,1.2.5,2.4,1.2,3.5,2,1.1.8,2.1,1.7,3,2.6l-1,1c-.4.4-.9.8-1.4,1-.5.2-1,.3-1.7.3s-1.6-.2-2.3-.7c-1.2-.8-2.5-1.4-3.9-1.9-1.4-.5-2.8-.7-4.4-.7s-3.9.4-5.7,1.1c-1.8.8-3.3,1.8-4.6,3.1-1.3,1.3-2.3,2.8-3.1,4.6-.8,1.8-1.1,3.6-1.1,5.7s.4,3.9,1.2,5.7c.8,1.8,1.9,3.3,3.2,4.6,1.3,1.3,2.9,2.4,4.7,3.1,1.8.8,3.7,1.1,5.7,1.1s3.2-.2,4.7-.6c1.5-.4,2.8-1,4.1-1.8v-7.1h-2.2c-.6,0-1.2-.1-1.7-.3-.5-.2-1-.5-1.3-.9-.4-.4-.6-.8-.8-1.3-.2-.5-.3-1-.3-1.6v-1.2h11.7Z"/>
  <path d="M537.3,594v15.7c-.9.9-1.9,1.7-3,2.2-1.1.6-2.3,1.1-3.5,1.4-1.2.3-2.5.6-3.8.7-1.3.1-2.7.2-4.1.2-2.8,0-5.3-.5-7.7-1.6-2.4-1-4.5-2.5-6.3-4.3-1.8-1.8-3.2-3.9-4.3-6.3-1-2.4-1.6-5-1.6-7.7s.2-3.6.7-5.3c.5-1.7,1.1-3.3,2-4.8.9-1.5,1.9-2.8,3.1-4,1.2-1.2,2.5-2.2,4-3.1,1.5-.9,3.1-1.5,4.8-2,1.7-.5,3.5-.7,5.3-.7s2.8.1,4.2.4c1.4.3,2.7.7,3.9,1.3,1.2.5,2.4,1.2,3.5,2,1.1.8,2.1,1.7,3,2.6l-1,1c-.4.4-.9.8-1.4,1-.5.2-1,.3-1.7.3s-1.6-.2-2.3-.7c-1.2-.8-2.5-1.4-3.9-1.9-1.4-.5-2.8-.7-4.4-.7s-3.9.4-5.7,1.1c-1.8.8-3.3,1.8-4.6,3.1-1.3,1.3-2.3,2.8-3.1,4.6-.8,1.8-1.1,3.6-1.1,5.7s.4,3.9,1.2,5.7c.8,1.8,1.9,3.3,3.2,4.6,1.3,1.3,2.9,2.4,4.7,3.1,1.8.8,3.7,1.1,5.7,1.1s3.2-.2,4.7-.6c1.5-.4,2.8-1,4.1-1.8v-7.1h-2.2c-.6,0-1.2-.1-1.7-.3-.5-.2-1-.5-1.3-.9-.4-.4-.6-.8-.8-1.3-.2-.5-.3-1-.3-1.6v-1.2h11.7Z"/>
  <path d="M572.7,574.9h5.2l17,38.9h-3.1c-.9,0-1.6-.2-2.3-.7-.7-.4-1.2-1.1-1.5-1.8l-2.7-6.2h-19.9l-2.7,6.2c-.3.8-.8,1.4-1.5,1.8-.7.5-1.5.7-2.3.7h-3.1l17-38.9ZM574.8,583.4l-7.1,16.3h15.2l-7.1-16.3c-.3-.6-.5-1.4-.5-2.3,0,.5,0,.9-.2,1.2,0,.4-.2.7-.3,1.1"/>
  <path d="M572.7,574.9h5.2l17,38.9h-3.1c-.9,0-1.6-.2-2.3-.7-.7-.4-1.2-1.1-1.5-1.8l-2.7-6.2h-19.9l-2.7,6.2c-.3.8-.8,1.4-1.5,1.8-.7.5-1.5.7-2.3.7h-3.1l17-38.9ZM574.8,583.4l-7.1,16.3h15.2l-7.1-16.3c-.3-.6-.5-1.4-.5-2.3,0,.5,0,.9-.2,1.2,0,.4-.2.7-.3,1.1"/>
  <polygon points="606.2 580.2 606.2 574.8 635.8 574.8 635.8 580.2 623.7 580.2 623.7 613.8 618.3 613.8 618.3 580.2 606.2 580.2"/>
  <polygon points="606.2 580.2 606.2 574.8 635.8 574.8 635.8 580.2 623.7 580.2 623.7 613.8 618.3 613.8 618.3 580.2 606.2 580.2"/>
  <polygon points="681 613.8 657 613.8 657 574.9 681 574.9 681 580.2 662.3 580.2 662.3 591.5 677.5 591.5 677.5 596.8 662.3 596.8 662.3 608.4 681 608.4 681 613.8"/>
  <polygon points="681 613.8 657 613.8 657 574.9 681 574.9 681 580.2 662.3 580.2 662.3 591.5 677.5 591.5 677.5 596.8 662.3 596.8 662.3 608.4 681 608.4 681 613.8"/>
  <path d="M718.5,581.5c-.7-.5-1.4-.9-2.1-1.2-.7-.3-1.4-.5-2-.5s-1.7.1-2.4.4c-.8.2-1.4.6-2,1-.6.4-1,.9-1.4,1.5-.3.6-.5,1.2-.5,1.9s.1,1.4.4,2c.3.5.7,1,1.2,1.5.6.4,1.3.8,2.2,1.2.9.4,2,.8,3.3,1.2.6.3,1.3.5,1.9.7.6.2,1.3.5,1.9.7.6.3,1.2.5,1.8.9.6.3,1.2.7,1.7,1.1,2.7,2.1,4.1,4.9,4.1,8.4s-.4,3.4-1.1,4.9c-.7,1.5-1.7,2.7-2.9,3.8-1.2,1.1-2.7,1.9-4.3,2.5-1.6.6-3.3.9-5.1.9-3.5,0-6.4-1-8.8-3.1-.5-.4-.9-.8-1.2-1.3-.4-.4-.7-.8-.9-1.2-.3-.4-.5-.8-.7-1.1-.2-.3-.3-.6-.4-.8l1.3-.7c.7-.4,1.4-.6,2.1-.6,1.2,0,2.2.4,3,1.3l.4.4c.7.6,1.5,1,2.3,1.3.8.3,1.8.5,2.9.5s1.8-.1,2.7-.4c.9-.3,1.8-.7,2.6-1.3.8-.6,1.4-1.2,1.9-2.1.5-.8.7-1.8.7-2.9s-.2-1.9-.7-2.6-1.1-1.3-1.8-1.8c-.8-.5-1.6-.9-2.5-1.3-.9-.3-1.9-.7-2.8-1.1-1.3-.5-2.6-1.1-3.9-1.6-1.3-.6-2.4-1.2-3.4-2.1-1-.8-1.8-1.8-2.4-3-.6-1.2-.9-2.6-.9-4.4s.3-3,1-4.3c.7-1.3,1.5-2.3,2.6-3.2,1.1-.9,2.3-1.5,3.7-2,1.4-.5,2.8-.7,4.3-.7s2.1.2,3.2.5c1.1.4,2,.8,3,1.4.9.6,1.8,1.2,2.5,1.8.7.7,1.4,1.3,1.8,1.9l-1.4,1c-.8.7-1.6,1-2.6,1s-1.6-.2-2.3-.6"/>
  <path d="M718.5,581.5c-.7-.5-1.4-.9-2.1-1.2-.7-.3-1.4-.5-2-.5s-1.7.1-2.4.4c-.8.2-1.4.6-2,1-.6.4-1,.9-1.4,1.5-.3.6-.5,1.2-.5,1.9s.1,1.4.4,2c.3.5.7,1,1.2,1.5.6.4,1.3.8,2.2,1.2.9.4,2,.8,3.3,1.2.6.3,1.3.5,1.9.7.6.2,1.3.5,1.9.7.6.3,1.2.5,1.8.9.6.3,1.2.7,1.7,1.1,2.7,2.1,4.1,4.9,4.1,8.4s-.4,3.4-1.1,4.9c-.7,1.5-1.7,2.7-2.9,3.8-1.2,1.1-2.7,1.9-4.3,2.5-1.6.6-3.3.9-5.1.9-3.5,0-6.4-1-8.8-3.1-.5-.4-.9-.8-1.2-1.3-.4-.4-.7-.8-.9-1.2-.3-.4-.5-.8-.7-1.1-.2-.3-.3-.6-.4-.8l1.3-.7c.7-.4,1.4-.6,2.1-.6,1.2,0,2.2.4,3,1.3l.4.4c.7.6,1.5,1,2.3,1.3.8.3,1.8.5,2.9.5s1.8-.1,2.7-.4c.9-.3,1.8-.7,2.6-1.3.8-.6,1.4-1.2,1.9-2.1.5-.8.7-1.8.7-2.9s-.2-1.9-.7-2.6-1.1-1.3-1.8-1.8c-.8-.5-1.6-.9-2.5-1.3-.9-.3-1.9-.7-2.8-1.1-1.3-.5-2.6-1.1-3.9-1.6-1.3-.6-2.4-1.2-3.4-2.1-1-.8-1.8-1.8-2.4-3-.6-1.2-.9-2.6-.9-4.4s.3-3,1-4.3c.7-1.3,1.5-2.3,2.6-3.2,1.1-.9,2.3-1.5,3.7-2,1.4-.5,2.8-.7,4.3-.7s2.1.2,3.2.5c1.1.4,2,.8,3,1.4.9.6,1.8,1.2,2.5,1.8.7.7,1.4,1.3,1.8,1.9l-1.4,1c-.8.7-1.6,1-2.6,1s-1.6-.2-2.3-.6"/>
  <path d="M541.1,503.6v.8l-78.5-67.1v-18.4h-24.5v133.4h24.5v-86.1l78.5,67.3v18.8h25.1v-133.2h-25.1v84.5ZM407.9,476.3c.1-7.1.2-14.4-.2-21.5-1.1-16.3-8.9-27.6-22.5-32.4-5.7-2.1-12.5-3.1-21.3-3.4-6.5-.2-13.1-.3-19.6-.3s-14.5,0-21.6.2h-3.2c-4.9.1-9.5.6-13.9,1.5-15,3.2-24.3,12.2-27.9,27-1,4.2-1.5,8.6-1.6,13.3-.2,15.8-.2,32.3,0,49,0,4.4.5,8.9,1.5,13.3,3.1,14.8,11.8,23.9,25.8,27.2,5.9,1.4,11.9,2.2,18,2.3,6.2.1,12.4.2,18.5.2,8.8,0,17.4-.1,25.2-.2,4.5,0,9-.5,13.2-1.4,12.7-2.7,21.2-9.2,25.5-19.5,2.2-5.3,3.5-10.7,3.8-15.5.4-7,.3-14.1.2-21,0-2.9,0-5.9,0-8.8s0-6.5.1-9.6M382.1,506.8c-.3,10.7-5.5,16.6-16.4,18.7-2.3.4-4.7.7-7.1.7-5.7,0-27.3,0-32.4,0-2.2,0-4.4-.2-6.4-.4-11.6-1.7-17.4-8.2-17.8-19.9-.2-4.9-.1-37.1,0-41.9.5-13.3,6.7-19.2,20-19.3,5.2,0,29.2,0,35.9,0,2.3,0,4.7,0,7.1.5,11.1,1.9,16.6,8.1,16.9,19.1.4,14,.4,28.3,0,42.5"/>
  <path d="M595.8,526.7h130.8v24.5l-130.8.5c0-2.7-.1-16.9,0-25.1"/>
  <path d="M726.6,419.5l-130.8.3c0,2.4,0,13.8,0,19.9,0,1.2,0,3.7,0,4.7h130.8v-24.9Z"/>
  <path class="st1" d="M595.8,498.3c-.6-5.1.2-21.7,0-25.2h130.8v24.7c-.1.1,0,.2,0,.3-41.3,0-130.8.2-130.8.2"/>
  <polygon class="st1" points="725.7 396.5 287.1 396.3 330.5 296.3 725.7 296.3 725.7 396.5"/>
  <polygon points="480.9 273.8 372.8 24 259.9 24 32.7 551.5 142.6 552.3 317.3 150.7 370.3 273.8 480.9 273.8"/>
</svg>